<svg xmlns="http://www.w3.org/2000/svg" width="90" height="90" viewBox="0 0 90 90"><g transform="translate(-0.072)"><rect width="90" height="90" transform="translate(0.072 0)" fill="#006aff" opacity="0"/><path d="M71.895,85a17.895,17.895,0,1,1,0-35.789h.211a17.895,17.895,0,0,1,0,35.789ZM67.5,58.172V69.329c0,.052,0,.1.005.156a2.24,2.24,0,0,0,2.233,2.094h9.026a2.236,2.236,0,0,0,0-4.473H72V58.172a2.25,2.25,0,0,0-4.5,0ZM50.426,73.816H10a10.011,10.011,0,0,1-10-10V29.079H90V53.4a21.852,21.852,0,0,0-17.5-8.666h-1a22.025,22.025,0,0,0-22,22v.737a22.018,22.018,0,0,0,.928,6.341h0ZM6.747,50.329A3.359,3.359,0,0,0,10.1,53.684h20.29a3.355,3.355,0,0,0,0-6.71H10.1A3.359,3.359,0,0,0,6.747,50.329Zm0-11.184A3.359,3.359,0,0,0,10.1,42.5h20.29a3.355,3.355,0,0,0,0-6.71H10.1A3.359,3.359,0,0,0,6.747,39.145ZM90,17.9H0V10A10.011,10.011,0,0,1,10,0H80A10.011,10.011,0,0,1,90,10v7.895h0Z" transform="translate(0.072 5)" fill="#006aff"/></g></svg>