<svg xmlns="http://www.w3.org/2000/svg" width="90" height="90" viewBox="0 0 90 90"><g transform="translate(-0.072)"><rect width="90" height="90" transform="translate(0.072 0)" fill="#006aff" opacity="0"/><path d="M71.895,85a17.895,17.895,0,1,1,0-35.789h.211a17.895,17.895,0,0,1,0,35.789ZM62.451,64.868a2.228,2.228,0,0,0,0,3.163l6.364,6.327a2.222,2.222,0,0,0,.909.55,2.28,2.28,0,0,0,.684.105A2.243,2.243,0,0,0,72,74.359L83.137,63.287a2.227,2.227,0,0,0,0-3.163,2.261,2.261,0,0,0-3.183,0l-9.545,9.491-4.774-4.747a2.26,2.26,0,0,0-3.182,0ZM50.426,73.816H10a10.011,10.011,0,0,1-10-10V10A10.011,10.011,0,0,1,10,0H80A10.011,10.011,0,0,1,90,10V53.4a21.852,21.852,0,0,0-17.5-8.666h-1a22.025,22.025,0,0,0-22,22v.737a22.018,22.018,0,0,0,.928,6.341h0ZM9,59.277a3.359,3.359,0,0,0,3.355,3.355h24.79a3.355,3.355,0,0,0,0-6.71H12.352A3.359,3.359,0,0,0,9,59.277ZM9,48.092a3.359,3.359,0,0,0,3.355,3.355h31.54a3.355,3.355,0,1,0,0-6.71H12.352A3.359,3.359,0,0,0,9,48.092Zm4.5-31.908v1.184a4.963,4.963,0,0,0,1.517,3.588A10,10,0,0,0,9,30.132v.658a5.006,5.006,0,0,0,5,5H24.247a5.005,5.005,0,0,0,5-5v-.658a10,10,0,0,0-6.017-9.175,4.962,4.962,0,0,0,1.517-3.588V16.185a5.006,5.006,0,0,0-5-5H18.5A5.006,5.006,0,0,0,13.5,16.185ZM36,30.2a3.359,3.359,0,0,0,3.355,3.355h38.29a3.355,3.355,0,0,0,0-6.71H39.354A3.359,3.359,0,0,0,36,30.2Zm0-13.421a3.359,3.359,0,0,0,3.355,3.355h38.29a3.356,3.356,0,0,0,0-6.711H39.354A3.36,3.36,0,0,0,36,16.777Z" transform="translate(0.072 5)" fill="#006aff"/></g></svg>