<svg xmlns="http://www.w3.org/2000/svg" width="90" height="90" viewBox="0 0 90 90"><g transform="translate(-0.072)"><rect width="90" height="90" transform="translate(0.073 0)" fill="#006aff" opacity="0"/><g transform="translate(0 1.952)"><path d="M90,52H0V10A10.011,10.011,0,0,1,10,0H80A10.011,10.011,0,0,1,90,10V52ZM16.891,33.913a3.391,3.391,0,0,0,0,6.782H43.859a3.391,3.391,0,0,0,0-6.782Zm0-11.3a3.391,3.391,0,0,0,0,6.782H30.359a3.391,3.391,0,0,0,0-6.782Zm0-11.3a3.391,3.391,0,0,0,0,6.782H73.109a3.391,3.391,0,0,0,0-6.782Z" transform="translate(0.073 0.048)" fill="#006aff"/><path d="M7.5,0h39A7.5,7.5,0,0,1,54,7.5v0A1.5,1.5,0,0,1,52.5,9H1.5A1.5,1.5,0,0,1,0,7.5v0A7.5,7.5,0,0,1,7.5,0Z" transform="translate(17.073 79.048)" fill="#006aff"/><rect width="14" height="18" transform="translate(38.073 63.048)" fill="#006aff"/><path d="M0,0H90a0,0,0,0,1,0,0V0A10,10,0,0,1,80,10H10A10,10,0,0,1,0,0V0A0,0,0,0,1,0,0Z" transform="translate(0.073 57.048)" fill="#006aff"/></g></g></svg>