<svg xmlns="http://www.w3.org/2000/svg" width="90" height="90" viewBox="0 0 90 90"><g transform="translate(-0.072)"><rect width="90" height="90" transform="translate(0.073 0)" fill="#006aff" opacity="0"/><path d="M10,89.728a10.011,10.011,0,0,1-10-10v-63a10.012,10.012,0,0,1,10-10h3.46v.216a11.012,11.012,0,0,0,11,11H56.3a11.012,11.012,0,0,0,11-11V6.729h3.459a10.011,10.011,0,0,1,10,10V23.4c-.166.143-.33.3-.488.453L38.793,65.328A8.973,8.973,0,1,0,51.482,78.017L80.755,48.745V79.728a10.011,10.011,0,0,1-10,10ZM8.973,54.958a3.368,3.368,0,0,0,3.364,3.365H25.8a3.365,3.365,0,1,0,0-6.73H12.337A3.369,3.369,0,0,0,8.973,54.958Zm0-17.946a3.368,3.368,0,0,0,3.364,3.365H43.743a3.365,3.365,0,0,0,0-6.729H12.337A3.368,3.368,0,0,0,8.973,37.013ZM41.964,74.846a4.486,4.486,0,0,1,0-6.345l34.9-34.9a4.486,4.486,0,0,1,6.344,6.344l-34.9,34.9a4.486,4.486,0,0,1-6.345,0ZM24.675,13.46a6.73,6.73,0,0,1,0-13.46H56.081a6.73,6.73,0,0,1,0,13.46Z" transform="translate(4.153 0.008)" fill="#006aff"/></g></svg>