<svg xmlns="http://www.w3.org/2000/svg" width="90" height="90" viewBox="0 0 90 90"><g transform="translate(0.002)"><rect width="90" height="90" transform="translate(-0.002 0)" fill="#006aff" opacity="0"/><path d="M67,90A22,22,0,0,1,45,68V67A22,22,0,0,1,67,45h1A22,22,0,0,1,90,67v1A22,22,0,0,1,68,90ZM63,54V69.75a2.344,2.344,0,0,0,.051.481A2.263,2.263,0,0,0,65.25,72H76.5a2.25,2.25,0,0,0,0-4.5h-9V54A2.25,2.25,0,0,0,63,54ZM47.373,85.5H10a10.011,10.011,0,0,1-10-10v-44H85.5V47.374A27,27,0,0,0,47.374,85.5l0,0ZM4.5,68.625A3.379,3.379,0,0,0,7.874,72h20.25a3.375,3.375,0,0,0,0-6.75H7.874A3.379,3.379,0,0,0,4.5,68.625Zm0-18A3.379,3.379,0,0,0,7.874,54h29.25a3.375,3.375,0,0,0,0-6.75H7.874A3.379,3.379,0,0,0,4.5,50.625ZM0,24.75V14.5a10.011,10.011,0,0,1,10-10h5.751V9a6.75,6.75,0,0,0,13.5,0V4.5h27V9a6.75,6.75,0,1,0,13.5,0V4.5H75.5a10.012,10.012,0,0,1,10,10V24.749H0ZM58.5,9V4.5a4.5,4.5,0,0,1,9,0V9a4.5,4.5,0,0,1-9,0ZM18,9V4.5a4.5,4.5,0,0,1,9,0V9a4.5,4.5,0,0,1-9,0Z" transform="translate(-0.002 0)" fill="#006aff"/></g></svg>